<?xml version="1.0" encoding="UTF-8"?>
<svg version="1.1" xmlns="http://www.w3.org/2000/svg" width="212" height="212">
<path d="M0 0 C5.28 0 10.56 0 16 0 C16 1.32 16 2.64 16 4 C18.64 4 21.28 4 24 4 C24 5.32 24 6.64 24 8 C25.32 8 26.64 8 28 8 C28 9.32 28 10.64 28 12 C29.32 12 30.64 12 32 12 C32 13.32 32 14.64 32 16 C33.32 16 34.64 16 36 16 C36 17.32 36 18.64 36 20 C37.32 20 38.64 20 40 20 C40 22.64 40 25.28 40 28 C41.32 28 42.64 28 44 28 C44 31.96 44 35.92 44 40 C45.32 40 46.64 40 48 40 C48 47.92 48 55.84 48 64 C46.68 64 45.36 64 44 64 C44 66.64 44 69.28 44 72 C42.68 72 41.36 72 40 72 C40 74.64 40 77.28 40 80 C38.68 80 37.36 80 36 80 C36 86.6 36 93.2 36 100 C37.32 100 38.64 100 40 100 C40 102.64 40 105.28 40 108 C41.32 108 42.64 108 44 108 C44 109.32 44 110.64 44 112 C45.32 112 46.64 112 48 112 C48 113.32 48 114.64 48 116 C54.6 116 61.2 116 68 116 C68 117.32 68 118.64 68 120 C70.64 120 73.28 120 76 120 C76 121.32 76 122.64 76 124 C77.32 124 78.64 124 80 124 C80 125.32 80 126.64 80 128 C83.96 128 87.92 128 92 128 C92 129.32 92 130.64 92 132 C94.64 132 97.28 132 100 132 C100 130.68 100 129.36 100 128 C98.68 128 97.36 128 96 128 C96 126.68 96 125.36 96 124 C94.68 124 93.36 124 92 124 C92 122.68 92 121.36 92 120 C89.36 120 86.72 120 84 120 C84 118.68 84 117.36 84 116 C80.04 116 76.08 116 72 116 C72 114.68 72 113.36 72 112 C70.68 112 69.36 112 68 112 C68 110.68 68 109.36 68 108 C69.32 108 70.64 108 72 108 C72 106.68 72 105.36 72 104 C73.32 104 74.64 104 76 104 C76 102.68 76 101.36 76 100 C78.64 100 81.28 100 84 100 C84 98.68 84 97.36 84 96 C86.64 96 89.28 96 92 96 C92 93.36 92 90.72 92 88 C90.68 88 89.36 88 88 88 C88 85.36 88 82.72 88 80 C86.68 80 85.36 80 84 80 C84 72.08 84 64.16 84 56 C85.32 56 86.64 56 88 56 C88 53.36 88 50.72 88 48 C89.32 48 90.64 48 92 48 C92 46.68 92 45.36 92 44 C93.32 44 94.64 44 96 44 C96 45.32 96 46.64 96 48 C97.32 48 98.64 48 100 48 C100 51.96 100 55.92 100 60 C101.32 60 102.64 60 104 60 C104 61.32 104 62.64 104 64 C106.64 64 109.28 64 112 64 C112 65.32 112 66.64 112 68 C113.32 68 114.64 68 116 68 C116 69.32 116 70.64 116 72 C117.32 72 118.64 72 120 72 C120 73.32 120 74.64 120 76 C123.96 76 127.92 76 132 76 C132 77.32 132 78.64 132 80 C137.28 80 142.56 80 148 80 C148 78.68 148 77.36 148 76 C153.28 76 158.56 76 164 76 C164 74.68 164 73.36 164 72 C170.6 72 177.2 72 184 72 C184 70.68 184 69.36 184 68 C185.32 68 186.64 68 188 68 C188 66.68 188 65.36 188 64 C190.64 64 193.28 64 196 64 C196 69.28 196 74.56 196 80 C194.68 80 193.36 80 192 80 C192 82.64 192 85.28 192 88 C190.68 88 189.36 88 188 88 C188 89.32 188 90.64 188 92 C186.68 92 185.36 92 184 92 C184 93.32 184 94.64 184 96 C182.68 96 181.36 96 180 96 C180 97.32 180 98.64 180 100 C178.68 100 177.36 100 176 100 C176 101.32 176 102.64 176 104 C174.68 104 173.36 104 172 104 C172 105.32 172 106.64 172 108 C169.36 108 166.72 108 164 108 C164 109.32 164 110.64 164 112 C162.68 112 161.36 112 160 112 C160 113.32 160 114.64 160 116 C161.32 116 162.64 116 164 116 C164 117.32 164 118.64 164 120 C165.32 120 166.64 120 168 120 C168 121.32 168 122.64 168 124 C169.32 124 170.64 124 172 124 C172 126.64 172 129.28 172 132 C173.32 132 174.64 132 176 132 C176 135.96 176 139.92 176 144 C172.04 144 168.08 144 164 144 C164 142.68 164 141.36 164 140 C161.36 140 158.72 140 156 140 C156 138.68 156 137.36 156 136 C154.68 136 153.36 136 152 136 C152 137.32 152 138.64 152 140 C149.36 140 146.72 140 144 140 C144 138.68 144 137.36 144 136 C142.68 136 141.36 136 140 136 C140 134.68 140 133.36 140 132 C138.68 132 137.36 132 136 132 C136 133.32 136 134.64 136 136 C134.68 136 133.36 136 132 136 C132 141.28 132 146.56 132 152 C133.32 152 134.64 152 136 152 C136 153.32 136 154.64 136 156 C137.32 156 138.64 156 140 156 C140 157.32 140 158.64 140 160 C142.64 160 145.28 160 148 160 C148 161.32 148 162.64 148 164 C149.32 164 150.64 164 152 164 C152 165.32 152 166.64 152 168 C153.32 168 154.64 168 156 168 C156 170.64 156 173.28 156 176 C157.32 176 158.64 176 160 176 C160 178.64 160 181.28 160 184 C158.68 184 157.36 184 156 184 C156 186.64 156 189.28 156 192 C153.36 192 150.72 192 148 192 C148 190.68 148 189.36 148 188 C146.68 188 145.36 188 144 188 C144 185.36 144 182.72 144 180 C142.68 180 141.36 180 140 180 C140 178.68 140 177.36 140 176 C137.36 176 134.72 176 132 176 C132 174.68 132 173.36 132 172 C129.36 172 126.72 172 124 172 C124 170.68 124 169.36 124 168 C120.04 168 116.08 168 112 168 C112 173.28 112 178.56 112 184 C113.32 184 114.64 184 116 184 C116 189.28 116 194.56 116 200 C117.32 200 118.64 200 120 200 C120 202.64 120 205.28 120 208 C118.68 208 117.36 208 116 208 C116 209.32 116 210.64 116 212 C113.36 212 110.72 212 108 212 C108 210.68 108 209.36 108 208 C106.68 208 105.36 208 104 208 C104 206.68 104 205.36 104 204 C102.68 204 101.36 204 100 204 C100 201.36 100 198.72 100 196 C98.68 196 97.36 196 96 196 C96 192.04 96 188.08 96 184 C94.68 184 93.36 184 92 184 C92 181.36 92 178.72 92 176 C90.68 176 89.36 176 88 176 C88 174.68 88 173.36 88 172 C86.68 172 85.36 172 84 172 C84 170.68 84 169.36 84 168 C82.68 168 81.36 168 80 168 C80 166.68 80 165.36 80 164 C77.36 164 74.72 164 72 164 C72 165.32 72 166.64 72 168 C70.68 168 69.36 168 68 168 C68 173.28 68 178.56 68 184 C69.32 184 70.64 184 72 184 C72 185.32 72 186.64 72 188 C73.32 188 74.64 188 76 188 C76 190.64 76 193.28 76 196 C70.72 196 65.44 196 60 196 C60 194.68 60 193.36 60 192 C58.68 192 57.36 192 56 192 C56 189.36 56 186.72 56 184 C54.68 184 53.36 184 52 184 C52 180.04 52 176.08 52 172 C50.68 172 49.36 172 48 172 C48 170.68 48 169.36 48 168 C45.36 168 42.72 168 40 168 C40 174.6 40 181.2 40 188 C41.32 188 42.64 188 44 188 C44 190.64 44 193.28 44 196 C42.68 196 41.36 196 40 196 C40 197.32 40 198.64 40 200 C36.04 200 32.08 200 28 200 C28 198.68 28 197.36 28 196 C26.68 196 25.36 196 24 196 C24 193.36 24 190.72 24 188 C22.68 188 21.36 188 20 188 C20 180.08 20 172.16 20 164 C21.32 164 22.64 164 24 164 C24 161.36 24 158.72 24 156 C25.32 156 26.64 156 28 156 C28 149.4 28 142.8 28 136 C29.32 136 30.64 136 32 136 C32 133.36 32 130.72 32 128 C33.32 128 34.64 128 36 128 C36 126.68 36 125.36 36 124 C34.68 124 33.36 124 32 124 C32 121.36 32 118.72 32 116 C30.68 116 29.36 116 28 116 C28 114.68 28 113.36 28 112 C26.68 112 25.36 112 24 112 C24 109.36 24 106.72 24 104 C22.68 104 21.36 104 20 104 C20 96.08 20 88.16 20 80 C21.32 80 22.64 80 24 80 C24 77.36 24 74.72 24 72 C25.32 72 26.64 72 28 72 C28 69.36 28 66.72 28 64 C29.32 64 30.64 64 32 64 C32 58.72 32 53.44 32 48 C30.68 48 29.36 48 28 48 C28 46.68 28 45.36 28 44 C21.4 44 14.8 44 8 44 C8 45.32 8 46.64 8 48 C5.36 48 2.72 48 0 48 C0 49.32 0 50.64 0 52 C-1.32 52 -2.64 52 -4 52 C-4 53.32 -4 54.64 -4 56 C-6.64 56 -9.28 56 -12 56 C-12 54.68 -12 53.36 -12 52 C-13.32 52 -14.64 52 -16 52 C-16 49.36 -16 46.72 -16 44 C-14.68 44 -13.36 44 -12 44 C-12 42.68 -12 41.36 -12 40 C-10.68 40 -9.36 40 -8 40 C-8 38.68 -8 37.36 -8 36 C-6.68 36 -5.36 36 -4 36 C-4 34.68 -4 33.36 -4 32 C-1.36 32 1.28 32 4 32 C4 30.68 4 29.36 4 28 C10.6 28 17.2 28 24 28 C24 26.68 24 25.36 24 24 C22.68 24 21.36 24 20 24 C20 22.68 20 21.36 20 20 C17.36 20 14.72 20 12 20 C12 18.68 12 17.36 12 16 C8.04 16 4.08 16 0 16 C0 14.68 0 13.36 0 12 C-1.32 12 -2.64 12 -4 12 C-4 9.36 -4 6.72 -4 4 C-2.68 4 -1.36 4 0 4 C0 2.68 0 1.36 0 0 Z " fill="#BF96B7" transform="translate(16,0)"/>
<path d="M0 0 C5.28 0 10.56 0 16 0 C16 1.32 16 2.64 16 4 C18.64 4 21.28 4 24 4 C24 5.32 24 6.64 24 8 C25.32 8 26.64 8 28 8 C28 9.32 28 10.64 28 12 C29.32 12 30.64 12 32 12 C32 13.32 32 14.64 32 16 C33.32 16 34.64 16 36 16 C36 17.32 36 18.64 36 20 C37.32 20 38.64 20 40 20 C40 22.64 40 25.28 40 28 C41.32 28 42.64 28 44 28 C44 31.96 44 35.92 44 40 C45.32 40 46.64 40 48 40 C48 47.92 48 55.84 48 64 C46.68 64 45.36 64 44 64 C44 66.64 44 69.28 44 72 C42.68 72 41.36 72 40 72 C40 74.64 40 77.28 40 80 C38.68 80 37.36 80 36 80 C36 86.6 36 93.2 36 100 C37.32 100 38.64 100 40 100 C40 102.64 40 105.28 40 108 C41.32 108 42.64 108 44 108 C44 109.32 44 110.64 44 112 C45.32 112 46.64 112 48 112 C48 113.32 48 114.64 48 116 C54.6 116 61.2 116 68 116 C68 117.32 68 118.64 68 120 C61.4 120 54.8 120 48 120 C48 121.32 48 122.64 48 124 C45.36 124 42.72 124 40 124 C40 125.32 40 126.64 40 128 C38.68 128 37.36 128 36 128 C36 126.68 36 125.36 36 124 C34.68 124 33.36 124 32 124 C32 121.36 32 118.72 32 116 C30.68 116 29.36 116 28 116 C28 114.68 28 113.36 28 112 C26.68 112 25.36 112 24 112 C24 109.36 24 106.72 24 104 C22.68 104 21.36 104 20 104 C20 96.08 20 88.16 20 80 C21.32 80 22.64 80 24 80 C24 77.36 24 74.72 24 72 C25.32 72 26.64 72 28 72 C28 69.36 28 66.72 28 64 C29.32 64 30.64 64 32 64 C32 58.72 32 53.44 32 48 C30.68 48 29.36 48 28 48 C28 46.68 28 45.36 28 44 C21.4 44 14.8 44 8 44 C8 45.32 8 46.64 8 48 C5.36 48 2.72 48 0 48 C0 49.32 0 50.64 0 52 C-1.32 52 -2.64 52 -4 52 C-4 53.32 -4 54.64 -4 56 C-6.64 56 -9.28 56 -12 56 C-12 54.68 -12 53.36 -12 52 C-13.32 52 -14.64 52 -16 52 C-16 49.36 -16 46.72 -16 44 C-14.68 44 -13.36 44 -12 44 C-12 42.68 -12 41.36 -12 40 C-10.68 40 -9.36 40 -8 40 C-8 38.68 -8 37.36 -8 36 C-6.68 36 -5.36 36 -4 36 C-4 34.68 -4 33.36 -4 32 C-1.36 32 1.28 32 4 32 C4 30.68 4 29.36 4 28 C10.6 28 17.2 28 24 28 C24 26.68 24 25.36 24 24 C22.68 24 21.36 24 20 24 C20 22.68 20 21.36 20 20 C17.36 20 14.72 20 12 20 C12 18.68 12 17.36 12 16 C8.04 16 4.08 16 0 16 C0 14.68 0 13.36 0 12 C-1.32 12 -2.64 12 -4 12 C-4 9.36 -4 6.72 -4 4 C-2.68 4 -1.36 4 0 4 C0 2.68 0 1.36 0 0 Z " fill="#B88EB3" transform="translate(16,0)"/>
<path d="M0 0 C2.64 0 5.28 0 8 0 C8 1.32 8 2.64 8 4 C14.6 4 21.2 4 28 4 C28 5.32 28 6.64 28 8 C29.32 8 30.64 8 32 8 C32 13.28 32 18.56 32 24 C33.32 24 34.64 24 36 24 C36 25.32 36 26.64 36 28 C37.32 28 38.64 28 40 28 C40 29.32 40 30.64 40 32 C42.64 32 45.28 32 48 32 C48 33.32 48 34.64 48 36 C49.32 36 50.64 36 52 36 C52 37.32 52 38.64 52 40 C53.32 40 54.64 40 56 40 C56 42.64 56 45.28 56 48 C57.32 48 58.64 48 60 48 C60 50.64 60 53.28 60 56 C58.68 56 57.36 56 56 56 C56 58.64 56 61.28 56 64 C53.36 64 50.72 64 48 64 C48 62.68 48 61.36 48 60 C46.68 60 45.36 60 44 60 C44 57.36 44 54.72 44 52 C42.68 52 41.36 52 40 52 C40 50.68 40 49.36 40 48 C37.36 48 34.72 48 32 48 C32 46.68 32 45.36 32 44 C29.36 44 26.72 44 24 44 C24 42.68 24 41.36 24 40 C21.36 40 18.72 40 16 40 C16 37.36 16 34.72 16 32 C17.32 32 18.64 32 20 32 C20 30.68 20 29.36 20 28 C21.32 28 22.64 28 24 28 C24 26.68 24 25.36 24 24 C21.36 24 18.72 24 16 24 C16 22.68 16 21.36 16 20 C13.36 20 10.72 20 8 20 C8 18.68 8 17.36 8 16 C6.68 16 5.36 16 4 16 C4 13.36 4 10.72 4 8 C0.04 8 -3.92 8 -8 8 C-8 6.68 -8 5.36 -8 4 C-5.36 4 -2.72 4 0 4 C0 2.68 0 1.36 0 0 Z " fill="#9E6F9E" transform="translate(116,128)"/>
<path d="M0 0 C5.28 0 10.56 0 16 0 C16 1.32 16 2.64 16 4 C18.64 4 21.28 4 24 4 C24 5.32 24 6.64 24 8 C25.32 8 26.64 8 28 8 C28 9.32 28 10.64 28 12 C29.32 12 30.64 12 32 12 C32 14.64 32 17.28 32 20 C30.68 20 29.36 20 28 20 C28 18.68 28 17.36 28 16 C26.68 16 25.36 16 24 16 C24 14.68 24 13.36 24 12 C21.36 12 18.72 12 16 12 C16 13.32 16 14.64 16 16 C14.68 16 13.36 16 12 16 C12 21.28 12 26.56 12 32 C13.32 32 14.64 32 16 32 C16 33.32 16 34.64 16 36 C17.32 36 18.64 36 20 36 C20 38.64 20 41.28 20 44 C14.72 44 9.44 44 4 44 C4 42.68 4 41.36 4 40 C2.68 40 1.36 40 0 40 C0 37.36 0 34.72 0 32 C-1.32 32 -2.64 32 -4 32 C-4 28.04 -4 24.08 -4 20 C-5.32 20 -6.64 20 -8 20 C-8 18.68 -8 17.36 -8 16 C-10.64 16 -13.28 16 -16 16 C-16 14.68 -16 13.36 -16 12 C-13.36 12 -10.72 12 -8 12 C-8 10.68 -8 9.36 -8 8 C-6.68 8 -5.36 8 -4 8 C-4 6.68 -4 5.36 -4 4 C-2.68 4 -1.36 4 0 4 C0 2.68 0 1.36 0 0 Z " fill="#7F4F7F" transform="translate(72,152)"/>
<path d="M0 0 C3.96 0 7.92 0 12 0 C12 1.32 12 2.64 12 4 C13.32 4 14.64 4 16 4 C16 5.32 16 6.64 16 8 C14.68 8 13.36 8 12 8 C12 9.32 12 10.64 12 12 C10.68 12 9.36 12 8 12 C8 13.32 8 14.64 8 16 C6.68 16 5.36 16 4 16 C4 17.32 4 18.64 4 20 C2.68 20 1.36 20 0 20 C0 21.32 0 22.64 0 24 C-2.64 24 -5.28 24 -8 24 C-8 25.32 -8 26.64 -8 28 C-9.32 28 -10.64 28 -12 28 C-12 29.32 -12 30.64 -12 32 C-14.64 32 -17.28 32 -20 32 C-20 30.68 -20 29.36 -20 28 C-22.64 28 -25.28 28 -28 28 C-28 25.36 -28 22.72 -28 20 C-29.32 20 -30.64 20 -32 20 C-32 18.68 -32 17.36 -32 16 C-30.68 16 -29.36 16 -28 16 C-28 14.68 -28 13.36 -28 12 C-26.68 12 -25.36 12 -24 12 C-24 10.68 -24 9.36 -24 8 C-21.36 8 -18.72 8 -16 8 C-16 6.68 -16 5.36 -16 4 C-10.72 4 -5.44 4 0 4 C0 2.68 0 1.36 0 0 Z " fill="#40497F" transform="translate(188,84)"/>
<path d="M0 0 C5.28 0 10.56 0 16 0 C16 1.32 16 2.64 16 4 C18.64 4 21.28 4 24 4 C24 5.32 24 6.64 24 8 C25.32 8 26.64 8 28 8 C28 9.32 28 10.64 28 12 C29.32 12 30.64 12 32 12 C32 13.32 32 14.64 32 16 C33.32 16 34.64 16 36 16 C36 17.32 36 18.64 36 20 C37.32 20 38.64 20 40 20 C40 27.92 40 35.84 40 44 C38.68 44 37.36 44 36 44 C36 42.68 36 41.36 36 40 C34.68 40 33.36 40 32 40 C32 36.04 32 32.08 32 28 C30.68 28 29.36 28 28 28 C28 26.68 28 25.36 28 24 C25.36 24 22.72 24 20 24 C20 22.68 20 21.36 20 20 C17.36 20 14.72 20 12 20 C12 18.68 12 17.36 12 16 C8.04 16 4.08 16 0 16 C0 14.68 0 13.36 0 12 C-1.32 12 -2.64 12 -4 12 C-4 9.36 -4 6.72 -4 4 C-2.68 4 -1.36 4 0 4 C0 2.68 0 1.36 0 0 Z " fill="#D3ABD2" transform="translate(16,0)"/>
<path d="M0 0 C9.24 0 18.48 0 28 0 C28 1.32 28 2.64 28 4 C29.32 4 30.64 4 32 4 C32 5.32 32 6.64 32 8 C35.96 8 39.92 8 44 8 C44 10.64 44 13.28 44 16 C45.32 16 46.64 16 48 16 C48 17.32 48 18.64 48 20 C45.36 20 42.72 20 40 20 C40 21.32 40 22.64 40 24 C36.04 24 32.08 24 28 24 C28 22.68 28 21.36 28 20 C24.04 20 20.08 20 16 20 C16 18.68 16 17.36 16 16 C14.68 16 13.36 16 12 16 C12 14.68 12 13.36 12 12 C10.68 12 9.36 12 8 12 C8 10.68 8 9.36 8 8 C6.68 8 5.36 8 4 8 C4 9.32 4 10.64 4 12 C2.68 12 1.36 12 0 12 C0 10.68 0 9.36 0 8 C-1.32 8 -2.64 8 -4 8 C-4 9.32 -4 10.64 -4 12 C-5.32 12 -6.64 12 -8 12 C-8 9.36 -8 6.72 -8 4 C-5.36 4 -2.72 4 0 4 C0 2.68 0 1.36 0 0 Z " fill="#DFB6DF" transform="translate(64,120)"/>
<path d="M0 0 C1.32 0 2.64 0 4 0 C4 6.6 4 13.2 4 20 C5.32 20 6.64 20 8 20 C8 18.68 8 17.36 8 16 C9.32 16 10.64 16 12 16 C12 10.72 12 5.44 12 0 C13.32 0 14.64 0 16 0 C16 6.6 16 13.2 16 20 C17.32 20 18.64 20 20 20 C20 22.64 20 25.28 20 28 C21.32 28 22.64 28 24 28 C24 29.32 24 30.64 24 32 C25.32 32 26.64 32 28 32 C28 33.32 28 34.64 28 36 C34.6 36 41.2 36 48 36 C48 37.32 48 38.64 48 40 C41.4 40 34.8 40 28 40 C28 41.32 28 42.64 28 44 C25.36 44 22.72 44 20 44 C20 45.32 20 46.64 20 48 C18.68 48 17.36 48 16 48 C16 46.68 16 45.36 16 44 C14.68 44 13.36 44 12 44 C12 41.36 12 38.72 12 36 C10.68 36 9.36 36 8 36 C8 34.68 8 33.36 8 32 C6.68 32 5.36 32 4 32 C4 29.36 4 26.72 4 24 C2.68 24 1.36 24 0 24 C0 16.08 0 8.16 0 0 Z " fill="#8C658C" transform="translate(36,80)"/>
<path d="M0 0 C3.96 0 7.92 0 12 0 C12 1.32 12 2.64 12 4 C14.64 4 17.28 4 20 4 C20 6.64 20 9.28 20 12 C21.32 12 22.64 12 24 12 C24 15.96 24 19.92 24 24 C20.04 24 16.08 24 12 24 C12 25.32 12 26.64 12 28 C10.68 28 9.36 28 8 28 C8 29.32 8 30.64 8 32 C5.36 32 2.72 32 0 32 C0 28.04 0 24.08 0 20 C1.32 20 2.64 20 4 20 C4 17.36 4 14.72 4 12 C2.68 12 1.36 12 0 12 C0 13.32 0 14.64 0 16 C-1.32 16 -2.64 16 -4 16 C-4 14.68 -4 13.36 -4 12 C-5.32 12 -6.64 12 -8 12 C-8 15.96 -8 19.92 -8 24 C-10.64 24 -13.28 24 -16 24 C-16 22.68 -16 21.36 -16 20 C-14.68 20 -13.36 20 -12 20 C-12 16.04 -12 12.08 -12 8 C-10.68 8 -9.36 8 -8 8 C-8 6.68 -8 5.36 -8 4 C-5.36 4 -2.72 4 0 4 C0 2.68 0 1.36 0 0 Z " fill="#ECC6EC" transform="translate(124,80)"/>
<path d="M0 0 C1.32 0 2.64 0 4 0 C4 1.32 4 2.64 4 4 C5.32 4 6.64 4 8 4 C8 6.64 8 9.28 8 12 C9.32 12 10.64 12 12 12 C12 13.32 12 14.64 12 16 C14.64 16 17.28 16 20 16 C20 17.32 20 18.64 20 20 C17.36 20 14.72 20 12 20 C12 21.32 12 22.64 12 24 C10.68 24 9.36 24 8 24 C8 27.96 8 31.92 8 36 C6.68 36 5.36 36 4 36 C4 38.64 4 41.28 4 44 C5.32 44 6.64 44 8 44 C8 45.32 8 46.64 8 48 C6.68 48 5.36 48 4 48 C4 50.64 4 53.28 4 56 C1.36 56 -1.28 56 -4 56 C-4 54.68 -4 53.36 -4 52 C-7.96 52 -11.92 52 -16 52 C-16 50.68 -16 49.36 -16 48 C-17.32 48 -18.64 48 -20 48 C-20 46.68 -20 45.36 -20 44 C-18.68 44 -17.36 44 -16 44 C-16 42.68 -16 41.36 -16 40 C-14.68 40 -13.36 40 -12 40 C-12 38.68 -12 37.36 -12 36 C-9.36 36 -6.72 36 -4 36 C-4 34.68 -4 33.36 -4 32 C-1.36 32 1.28 32 4 32 C4 29.36 4 26.72 4 24 C2.68 24 1.36 24 0 24 C0 16.08 0 8.16 0 0 Z " fill="#4A73B4" transform="translate(104,64)"/>
<path d="M0 0 C1.32 0 2.64 0 4 0 C4 1.32 4 2.64 4 4 C5.32 4 6.64 4 8 4 C8 7.96 8 11.92 8 16 C9.32 16 10.64 16 12 16 C12 17.32 12 18.64 12 20 C14.64 20 17.28 20 20 20 C20 21.32 20 22.64 20 24 C21.32 24 22.64 24 24 24 C24 25.32 24 26.64 24 28 C25.32 28 26.64 28 28 28 C28 29.32 28 30.64 28 32 C30.64 32 33.28 32 36 32 C36 33.32 36 34.64 36 36 C26.76 36 17.52 36 8 36 C8 34.68 8 33.36 8 32 C6.68 32 5.36 32 4 32 C4 29.36 4 26.72 4 24 C2.68 24 1.36 24 0 24 C0 22.68 0 21.36 0 20 C-1.32 20 -2.64 20 -4 20 C-4 25.28 -4 30.56 -4 36 C-5.32 36 -6.64 36 -8 36 C-8 28.08 -8 20.16 -8 12 C-6.68 12 -5.36 12 -4 12 C-4 9.36 -4 6.72 -4 4 C-2.68 4 -1.36 4 0 4 C0 2.68 0 1.36 0 0 Z " fill="#B88DB1" transform="translate(108,44)"/>
<path d="M0 0 C1.32 0 2.64 0 4 0 C4 1.32 4 2.64 4 4 C5.32 4 6.64 4 8 4 C8 2.68 8 1.36 8 0 C10.64 0 13.28 0 16 0 C16 1.32 16 2.64 16 4 C17.32 4 18.64 4 20 4 C20 6.64 20 9.28 20 12 C21.32 12 22.64 12 24 12 C24 15.96 24 19.92 24 24 C20.04 24 16.08 24 12 24 C12 22.68 12 21.36 12 20 C9.36 20 6.72 20 4 20 C4 18.68 4 17.36 4 16 C2.68 16 1.36 16 0 16 C0 17.32 0 18.64 0 20 C-2.64 20 -5.28 20 -8 20 C-8 16.04 -8 12.08 -8 8 C-6.68 8 -5.36 8 -4 8 C-4 6.68 -4 5.36 -4 4 C-2.68 4 -1.36 4 0 4 C0 2.68 0 1.36 0 0 Z " fill="#D5AED5" transform="translate(168,120)"/>
<path d="M0 0 C1.32 0 2.64 0 4 0 C4 1.32 4 2.64 4 4 C5.32 4 6.64 4 8 4 C8 2.68 8 1.36 8 0 C9.32 0 10.64 0 12 0 C12 2.64 12 5.28 12 8 C10.68 8 9.36 8 8 8 C8 11.96 8 15.92 8 20 C9.32 20 10.64 20 12 20 C12 21.32 12 22.64 12 24 C13.32 24 14.64 24 16 24 C16 26.64 16 29.28 16 32 C13.36 32 10.72 32 8 32 C8 33.32 8 34.64 8 36 C4.04 36 0.08 36 -4 36 C-4 34.68 -4 33.36 -4 32 C-5.32 32 -6.64 32 -8 32 C-8 28.04 -8 24.08 -8 20 C-6.68 20 -5.36 20 -4 20 C-4 18.68 -4 17.36 -4 16 C-5.32 16 -6.64 16 -8 16 C-8 14.68 -8 13.36 -8 12 C-5.36 12 -2.72 12 0 12 C0 8.04 0 4.08 0 0 Z " fill="#CDA7D0" transform="translate(116,92)"/>
<path d="M0 0 C2.64 0 5.28 0 8 0 C8 1.32 8 2.64 8 4 C14.6 4 21.2 4 28 4 C28 10.6 28 17.2 28 24 C24.04 24 20.08 24 16 24 C16 22.68 16 21.36 16 20 C13.36 20 10.72 20 8 20 C8 18.68 8 17.36 8 16 C6.68 16 5.36 16 4 16 C4 13.36 4 10.72 4 8 C0.04 8 -3.92 8 -8 8 C-8 6.68 -8 5.36 -8 4 C-5.36 4 -2.72 4 0 4 C0 2.68 0 1.36 0 0 Z " fill="#A877A8" transform="translate(116,128)"/>
<path d="M0 0 C2.64 0 5.28 0 8 0 C8 1.32 8 2.64 8 4 C10.64 4 13.28 4 16 4 C16 5.32 16 6.64 16 8 C21.28 8 26.56 8 32 8 C32 9.32 32 10.64 32 12 C25.4 12 18.8 12 12 12 C12 13.32 12 14.64 12 16 C9.36 16 6.72 16 4 16 C4 17.32 4 18.64 4 20 C2.68 20 1.36 20 0 20 C0 21.32 0 22.64 0 24 C-2.64 24 -5.28 24 -8 24 C-8 22.68 -8 21.36 -8 20 C-9.32 20 -10.64 20 -12 20 C-12 17.36 -12 14.72 -12 12 C-10.68 12 -9.36 12 -8 12 C-8 10.68 -8 9.36 -8 8 C-6.68 8 -5.36 8 -4 8 C-4 6.68 -4 5.36 -4 4 C-2.68 4 -1.36 4 0 4 C0 2.68 0 1.36 0 0 Z " fill="#A985A3" transform="translate(12,32)"/>
<path d="M0 0 C2.64 0 5.28 0 8 0 C8 1.32 8 2.64 8 4 C9.32 4 10.64 4 12 4 C12 5.32 12 6.64 12 8 C13.32 8 14.64 8 16 8 C16 5.36 16 2.72 16 0 C17.32 0 18.64 0 20 0 C20 5.28 20 10.56 20 16 C21.32 16 22.64 16 24 16 C24 18.64 24 21.28 24 24 C22.68 24 21.36 24 20 24 C20 25.32 20 26.64 20 28 C17.36 28 14.72 28 12 28 C12 26.68 12 25.36 12 24 C10.68 24 9.36 24 8 24 C8 22.68 8 21.36 8 20 C6.68 20 5.36 20 4 20 C4 17.36 4 14.72 4 12 C2.68 12 1.36 12 0 12 C0 8.04 0 4.08 0 0 Z " fill="#D4AED3" transform="translate(112,184)"/>
<path d="M0 0 C5.28 0 10.56 0 16 0 C16 1.32 16 2.64 16 4 C17.32 4 18.64 4 20 4 C20 6.64 20 9.28 20 12 C21.32 12 22.64 12 24 12 C24 14.64 24 17.28 24 20 C22.68 20 21.36 20 20 20 C20 22.64 20 25.28 20 28 C17.36 28 14.72 28 12 28 C12 26.68 12 25.36 12 24 C10.68 24 9.36 24 8 24 C8 21.36 8 18.72 8 16 C6.68 16 5.36 16 4 16 C4 12.04 4 8.08 4 4 C2.68 4 1.36 4 0 4 C0 2.68 0 1.36 0 0 Z " fill="#986D98" transform="translate(152,164)"/>
<path d="M0 0 C1.32 0 2.64 0 4 0 C4 6.6 4 13.2 4 20 C5.32 20 6.64 20 8 20 C8 22.64 8 25.28 8 28 C6.68 28 5.36 28 4 28 C4 29.32 4 30.64 4 32 C0.04 32 -3.92 32 -8 32 C-8 30.68 -8 29.36 -8 28 C-9.32 28 -10.64 28 -12 28 C-12 25.36 -12 22.72 -12 20 C-13.32 20 -14.64 20 -16 20 C-16 17.36 -16 14.72 -16 12 C-14.68 12 -13.36 12 -12 12 C-12 13.32 -12 14.64 -12 16 C-8.04 16 -4.08 16 0 16 C0 10.72 0 5.44 0 0 Z " fill="#E0B7DF" transform="translate(52,168)"/>
<path d="M0 0 C2.64 0 5.28 0 8 0 C8 5.28 8 10.56 8 16 C6.68 16 5.36 16 4 16 C4 18.64 4 21.28 4 24 C1.36 24 -1.28 24 -4 24 C-4 22.68 -4 21.36 -4 20 C-6.64 20 -9.28 20 -12 20 C-12 18.68 -12 17.36 -12 16 C-10.68 16 -9.36 16 -8 16 C-8 14.68 -8 13.36 -8 12 C-13.28 12 -18.56 12 -24 12 C-24 10.68 -24 9.36 -24 8 C-17.4 8 -10.8 8 -4 8 C-4 6.68 -4 5.36 -4 4 C-2.68 4 -1.36 4 0 4 C0 2.68 0 1.36 0 0 Z " fill="#B78CB1" transform="translate(204,64)"/>
<path d="M0 0 C10.56 0 21.12 0 32 0 C32 1.32 32 2.64 32 4 C30.68 4 29.36 4 28 4 C28 5.32 28 6.64 28 8 C26.68 8 25.36 8 24 8 C24 9.32 24 10.64 24 12 C18.72 12 13.44 12 8 12 C8 10.68 8 9.36 8 8 C5.36 8 2.72 8 0 8 C0 5.36 0 2.72 0 0 Z " fill="#E3BAE3" transform="translate(164,76)"/>
<path d="M0 0 C3.96 0 7.92 0 12 0 C12 5.28 12 10.56 12 16 C6.72 16 1.44 16 -4 16 C-4 14.68 -4 13.36 -4 12 C-5.32 12 -6.64 12 -8 12 C-8 10.68 -8 9.36 -8 8 C-6.68 8 -5.36 8 -4 8 C-4 6.68 -4 5.36 -4 4 C-2.68 4 -1.36 4 0 4 C0 2.68 0 1.36 0 0 Z " fill="#987293" transform="translate(92,100)"/>
<path d="M0 0 C5.28 0 10.56 0 16 0 C16 2.64 16 5.28 16 8 C14.68 8 13.36 8 12 8 C12 9.32 12 10.64 12 12 C9.36 12 6.72 12 4 12 C4 9.36 4 6.72 4 4 C2.68 4 1.36 4 0 4 C0 2.68 0 1.36 0 0 Z " fill="#BA90B4" transform="translate(152,164)"/>
<path d="M0 0 C5.28 0 10.56 0 16 0 C16 1.32 16 2.64 16 4 C14.68 4 13.36 4 12 4 C12 5.32 12 6.64 12 8 C10.68 8 9.36 8 8 8 C8 9.32 8 10.64 8 12 C5.36 12 2.72 12 0 12 C0 8.04 0 4.08 0 0 Z " fill="#F0CEEF" transform="translate(124,100)"/>
<path d="M0 0 C5.28 0 10.56 0 16 0 C16 1.32 16 2.64 16 4 C14.68 4 13.36 4 12 4 C12 5.32 12 6.64 12 8 C10.68 8 9.36 8 8 8 C8 6.68 8 5.36 8 4 C6.68 4 5.36 4 4 4 C4 7.96 4 11.92 4 16 C1.36 16 -1.28 16 -4 16 C-4 14.68 -4 13.36 -4 12 C-2.68 12 -1.36 12 0 12 C0 8.04 0 4.08 0 0 Z " fill="#E5CFE5" transform="translate(112,88)"/>
<path d="M0 0 C2.64 0 5.28 0 8 0 C8 2.64 8 5.28 8 8 C6.68 8 5.36 8 4 8 C4 9.32 4 10.64 4 12 C0.04 12 -3.92 12 -8 12 C-8 9.36 -8 6.72 -8 4 C-5.36 4 -2.72 4 0 4 C0 2.68 0 1.36 0 0 Z " fill="#3D5D8F" transform="translate(188,92)"/>
<path d="M0 0 C1.32 0 2.64 0 4 0 C4 1.32 4 2.64 4 4 C5.32 4 6.64 4 8 4 C8 6.64 8 9.28 8 12 C6.68 12 5.36 12 4 12 C4 10.68 4 9.36 4 8 C-3.92 8 -11.84 8 -20 8 C-20 6.68 -20 5.36 -20 4 C-13.4 4 -6.8 4 0 4 C0 2.68 0 1.36 0 0 Z " fill="#694369" transform="translate(40,24)"/>
<path d="M0 0 C1.32 0 2.64 0 4 0 C4 2.64 4 5.28 4 8 C2.68 8 1.36 8 0 8 C0 10.64 0 13.28 0 16 C-1.32 16 -2.64 16 -4 16 C-4 14.68 -4 13.36 -4 12 C-6.64 12 -9.28 12 -12 12 C-12 10.68 -12 9.36 -12 8 C-9.36 8 -6.72 8 -4 8 C-4 6.68 -4 5.36 -4 4 C-2.68 4 -1.36 4 0 4 C0 2.68 0 1.36 0 0 Z " fill="#101010" transform="translate(68,156)"/>
<path d="M0 0 C1.32 0 2.64 0 4 0 C4 2.64 4 5.28 4 8 C6.64 8 9.28 8 12 8 C12 9.32 12 10.64 12 12 C8.04 12 4.08 12 0 12 C0 10.68 0 9.36 0 8 C-1.32 8 -2.64 8 -4 8 C-4 6.68 -4 5.36 -4 4 C-2.68 4 -1.36 4 0 4 C0 2.68 0 1.36 0 0 Z " fill="#101010" transform="translate(132,108)"/>
<path d="M0 0 C1.32 0 2.64 0 4 0 C4 1.32 4 2.64 4 4 C5.32 4 6.64 4 8 4 C8 5.32 8 6.64 8 8 C6.68 8 5.36 8 4 8 C4 10.64 4 13.28 4 16 C1.36 16 -1.28 16 -4 16 C-4 14.68 -4 13.36 -4 12 C-2.68 12 -1.36 12 0 12 C0 8.04 0 4.08 0 0 Z " fill="#101010" transform="translate(104,104)"/>
<path d="M0 0 C1.32 0 2.64 0 4 0 C4 1.32 4 2.64 4 4 C5.32 4 6.64 4 8 4 C8 2.68 8 1.36 8 0 C9.32 0 10.64 0 12 0 C12 2.64 12 5.28 12 8 C10.68 8 9.36 8 8 8 C8 9.32 8 10.64 8 12 C6.68 12 5.36 12 4 12 C4 10.68 4 9.36 4 8 C2.68 8 1.36 8 0 8 C0 5.36 0 2.72 0 0 Z " fill="#A82052" transform="translate(116,92)"/>
<path d="M0 0 C1.32 0 2.64 0 4 0 C4 7.92 4 15.84 4 24 C2.68 24 1.36 24 0 24 C0 16.08 0 8.16 0 0 Z " fill="#101010" transform="translate(36,80)"/>
<path d="M0 0 C1.32 0 2.64 0 4 0 C4 7.92 4 15.84 4 24 C2.68 24 1.36 24 0 24 C0 16.08 0 8.16 0 0 Z " fill="#835283" transform="translate(100,56)"/>
<path d="M0 0 C1.32 0 2.64 0 4 0 C4 7.92 4 15.84 4 24 C2.68 24 1.36 24 0 24 C0 16.08 0 8.16 0 0 Z " fill="#835283" transform="translate(60,40)"/>
<path d="M0 0 C1.32 0 2.64 0 4 0 C4 2.64 4 5.28 4 8 C-1.28 8 -6.56 8 -12 8 C-12 6.68 -12 5.36 -12 4 C-8.04 4 -4.08 4 0 4 C0 2.68 0 1.36 0 0 Z " fill="#101010" transform="translate(88,188)"/>
<path d="M0 0 C1.32 0 2.64 0 4 0 C4 1.32 4 2.64 4 4 C5.32 4 6.64 4 8 4 C8 7.96 8 11.92 8 16 C6.68 16 5.36 16 4 16 C4 13.36 4 10.72 4 8 C2.68 8 1.36 8 0 8 C0 5.36 0 2.72 0 0 Z " fill="#101010" transform="translate(36,180)"/>
<path d="M0 0 C1.32 0 2.64 0 4 0 C4 6.6 4 13.2 4 20 C2.68 20 1.36 20 0 20 C0 13.4 0 6.8 0 0 Z " fill="#271D27" transform="translate(52,168)"/>
<path d="M0 0 C1.32 0 2.64 0 4 0 C4 3.96 4 7.92 4 12 C0.04 12 -3.92 12 -8 12 C-8 10.68 -8 9.36 -8 8 C-5.36 8 -2.72 8 0 8 C0 5.36 0 2.72 0 0 Z " fill="#835283" transform="translate(188,132)"/>
<path d="M0 0 C1.32 0 2.64 0 4 0 C4 1.32 4 2.64 4 4 C5.32 4 6.64 4 8 4 C8 2.68 8 1.36 8 0 C9.32 0 10.64 0 12 0 C12 2.64 12 5.28 12 8 C8.04 8 4.08 8 0 8 C0 5.36 0 2.72 0 0 Z " fill="#7B41C5" transform="translate(136,108)"/>
<path d="M0 0 C1.32 0 2.64 0 4 0 C4 6.6 4 13.2 4 20 C2.68 20 1.36 20 0 20 C0 13.4 0 6.8 0 0 Z " fill="#101010" transform="translate(48,80)"/>
<path d="M0 0 C1.32 0 2.64 0 4 0 C4 1.32 4 2.64 4 4 C6.64 4 9.28 4 12 4 C12 5.32 12 6.64 12 8 C9.36 8 6.72 8 4 8 C4 9.32 4 10.64 4 12 C2.68 12 1.36 12 0 12 C0 8.04 0 4.08 0 0 Z " fill="#2B365C" transform="translate(112,76)"/>
<path d="M0 0 C6.6 0 13.2 0 20 0 C20 1.32 20 2.64 20 4 C13.4 4 6.8 4 0 4 C0 2.68 0 1.36 0 0 Z " fill="#835283" transform="translate(180,72)"/>
<path d="M0 0 C6.6 0 13.2 0 20 0 C20 1.32 20 2.64 20 4 C13.4 4 6.8 4 0 4 C0 2.68 0 1.36 0 0 Z " fill="#101010" transform="translate(24,40)"/>
<path d="M0 0 C1.32 0 2.64 0 4 0 C4 5.28 4 10.56 4 16 C2.68 16 1.36 16 0 16 C0 10.72 0 5.44 0 0 Z " fill="#101010" transform="translate(128,184)"/>
<path d="M0 0 C1.32 0 2.64 0 4 0 C4 5.28 4 10.56 4 16 C2.68 16 1.36 16 0 16 C0 10.72 0 5.44 0 0 Z " fill="#101010" transform="translate(124,168)"/>
<path d="M0 0 C1.32 0 2.64 0 4 0 C4 5.28 4 10.56 4 16 C2.68 16 1.36 16 0 16 C0 10.72 0 5.44 0 0 Z " fill="#101010" transform="translate(80,168)"/>
<path d="M0 0 C1.32 0 2.64 0 4 0 C4 5.28 4 10.56 4 16 C2.68 16 1.36 16 0 16 C0 10.72 0 5.44 0 0 Z " fill="#835283" transform="translate(36,164)"/>
<path d="M0 0 C2.64 0 5.28 0 8 0 C8 1.32 8 2.64 8 4 C6.68 4 5.36 4 4 4 C4 5.32 4 6.64 4 8 C1.36 8 -1.28 8 -4 8 C-4 6.68 -4 5.36 -4 4 C-2.68 4 -1.36 4 0 4 C0 2.68 0 1.36 0 0 Z " fill="#101010" transform="translate(164,132)"/>
<path d="M0 0 C2.64 0 5.28 0 8 0 C8 1.32 8 2.64 8 4 C6.68 4 5.36 4 4 4 C4 5.32 4 6.64 4 8 C1.36 8 -1.28 8 -4 8 C-4 6.68 -4 5.36 -4 4 C-2.68 4 -1.36 4 0 4 C0 2.68 0 1.36 0 0 Z " fill="#101010" transform="translate(172,108)"/>
<path d="M0 0 C3.96 0 7.92 0 12 0 C12 1.32 12 2.64 12 4 C10.68 4 9.36 4 8 4 C8 5.32 8 6.64 8 8 C6.68 8 5.36 8 4 8 C4 6.68 4 5.36 4 4 C2.68 4 1.36 4 0 4 C0 2.68 0 1.36 0 0 Z " fill="#101010" transform="translate(136,104)"/>
<path d="M0 0 C1.32 0 2.64 0 4 0 C4 5.28 4 10.56 4 16 C2.68 16 1.36 16 0 16 C0 10.72 0 5.44 0 0 Z " fill="#AC7BAC" transform="translate(100,100)"/>
<path d="M0 0 C5.28 0 10.56 0 16 0 C16 1.32 16 2.64 16 4 C10.72 4 5.44 4 0 4 C0 2.68 0 1.36 0 0 Z " fill="#493149" transform="translate(164,76)"/>
<path d="M0 0 C5.28 0 10.56 0 16 0 C16 1.32 16 2.64 16 4 C10.72 4 5.44 4 0 4 C0 2.68 0 1.36 0 0 Z " fill="#101010" transform="translate(128,76)"/>
<path d="M0 0 C1.32 0 2.64 0 4 0 C4 5.28 4 10.56 4 16 C2.68 16 1.36 16 0 16 C0 10.72 0 5.44 0 0 Z " fill="#101010" transform="translate(208,64)"/>
<path d="M0 0 C1.32 0 2.64 0 4 0 C4 1.32 4 2.64 4 4 C5.32 4 6.64 4 8 4 C8 6.64 8 9.28 8 12 C6.68 12 5.36 12 4 12 C4 10.68 4 9.36 4 8 C2.68 8 1.36 8 0 8 C0 5.36 0 2.72 0 0 Z " fill="#394A83" transform="translate(104,64)"/>
<path d="M0 0 C1.32 0 2.64 0 4 0 C4 5.28 4 10.56 4 16 C2.68 16 1.36 16 0 16 C0 10.72 0 5.44 0 0 Z " fill="#101010" transform="translate(48,48)"/>
<path d="M0 0 C2.64 0 5.28 0 8 0 C8 1.32 8 2.64 8 4 C6.68 4 5.36 4 4 4 C4 5.32 4 6.64 4 8 C1.36 8 -1.28 8 -4 8 C-4 6.68 -4 5.36 -4 4 C-2.68 4 -1.36 4 0 4 C0 2.68 0 1.36 0 0 Z " fill="#976697" transform="translate(12,32)"/>
<path d="M0 0 C5.28 0 10.56 0 16 0 C16 1.32 16 2.64 16 4 C10.72 4 5.44 4 0 4 C0 2.68 0 1.36 0 0 Z " fill="#835283" transform="translate(16,0)"/>
<path d="M0 0 C3.96 0 7.92 0 12 0 C12 1.32 12 2.64 12 4 C8.04 4 4.08 4 0 4 C0 2.68 0 1.36 0 0 Z " fill="#101010" transform="translate(44,196)"/>
<path d="M0 0 C1.32 0 2.64 0 4 0 C4 2.64 4 5.28 4 8 C1.36 8 -1.28 8 -4 8 C-4 6.68 -4 5.36 -4 4 C-2.68 4 -1.36 4 0 4 C0 2.68 0 1.36 0 0 Z " fill="#5C3C5C" transform="translate(168,184)"/>
<path d="M0 0 C1.32 0 2.64 0 4 0 C4 3.96 4 7.92 4 12 C2.68 12 1.36 12 0 12 C0 8.04 0 4.08 0 0 Z " fill="#101010" transform="translate(112,184)"/>
<path d="M0 0 C1.32 0 2.64 0 4 0 C4 3.96 4 7.92 4 12 C2.68 12 1.36 12 0 12 C0 8.04 0 4.08 0 0 Z " fill="#101010" transform="translate(68,172)"/>
<path d="M0 0 C2.64 0 5.28 0 8 0 C8 2.64 8 5.28 8 8 C6.68 8 5.36 8 4 8 C4 6.68 4 5.36 4 4 C2.68 4 1.36 4 0 4 C0 2.68 0 1.36 0 0 Z " fill="#101010" transform="translate(96,164)"/>
<path d="M0 0 C2.64 0 5.28 0 8 0 C8 1.32 8 2.64 8 4 C6.68 4 5.36 4 4 4 C4 5.32 4 6.64 4 8 C2.68 8 1.36 8 0 8 C0 5.36 0 2.72 0 0 Z " fill="#101010" transform="translate(84,160)"/>
<path d="M0 0 C1.32 0 2.64 0 4 0 C4 3.96 4 7.92 4 12 C2.68 12 1.36 12 0 12 C0 8.04 0 4.08 0 0 Z " fill="#101010" transform="translate(44,140)"/>
<path d="M0 0 C1.32 0 2.64 0 4 0 C4 3.96 4 7.92 4 12 C2.68 12 1.36 12 0 12 C0 8.04 0 4.08 0 0 Z " fill="#101010" transform="translate(144,136)"/>
<path d="M0 0 C3.96 0 7.92 0 12 0 C12 1.32 12 2.64 12 4 C8.04 4 4.08 4 0 4 C0 2.68 0 1.36 0 0 Z " fill="#835283" transform="translate(124,132)"/>
<path d="M0 0 C2.64 0 5.28 0 8 0 C8 1.32 8 2.64 8 4 C6.68 4 5.36 4 4 4 C4 5.32 4 6.64 4 8 C2.68 8 1.36 8 0 8 C0 5.36 0 2.72 0 0 Z " fill="#DBB2D8" transform="translate(56,124)"/>
<path d="M0 0 C3.96 0 7.92 0 12 0 C12 1.32 12 2.64 12 4 C8.04 4 4.08 4 0 4 C0 2.68 0 1.36 0 0 Z " fill="#835283" transform="translate(72,116)"/>
<path d="M0 0 C1.32 0 2.64 0 4 0 C4 2.64 4 5.28 4 8 C1.36 8 -1.28 8 -4 8 C-4 6.68 -4 5.36 -4 4 C-2.68 4 -1.36 4 0 4 C0 2.68 0 1.36 0 0 Z " fill="#33204C" transform="translate(132,108)"/>
<path d="M0 0 C3.96 0 7.92 0 12 0 C12 1.32 12 2.64 12 4 C8.04 4 4.08 4 0 4 C0 2.68 0 1.36 0 0 Z " fill="#101010" transform="translate(88,112)"/>
<path d="M0 0 C2.64 0 5.28 0 8 0 C8 2.64 8 5.28 8 8 C6.68 8 5.36 8 4 8 C4 6.68 4 5.36 4 4 C2.68 4 1.36 4 0 4 C0 2.68 0 1.36 0 0 Z " fill="#804C99" transform="translate(100,96)"/>
<path d="M0 0 C1.32 0 2.64 0 4 0 C4 3.96 4 7.92 4 12 C2.68 12 1.36 12 0 12 C0 8.04 0 4.08 0 0 Z " fill="#362636" transform="translate(108,88)"/>
<path d="M0 0 C2.64 0 5.28 0 8 0 C8 1.32 8 2.64 8 4 C6.68 4 5.36 4 4 4 C4 5.32 4 6.64 4 8 C2.68 8 1.36 8 0 8 C0 5.36 0 2.72 0 0 Z " fill="#E39EBD" transform="translate(120,88)"/>
<path d="M0 0 C2.64 0 5.28 0 8 0 C8 1.32 8 2.64 8 4 C6.68 4 5.36 4 4 4 C4 5.32 4 6.64 4 8 C2.68 8 1.36 8 0 8 C0 5.36 0 2.72 0 0 Z " fill="#EBC5EB" transform="translate(112,88)"/>
<path d="M0 0 C1.32 0 2.64 0 4 0 C4 3.96 4 7.92 4 12 C2.68 12 1.36 12 0 12 C0 8.04 0 4.08 0 0 Z " fill="#835283" transform="translate(112,48)"/>
<path d="M0 0 C1.32 0 2.64 0 4 0 C4 3.96 4 7.92 4 12 C2.68 12 1.36 12 0 12 C0 8.04 0 4.08 0 0 Z " fill="#835283" transform="translate(56,28)"/>
<path d="M0 0 C3.96 0 7.92 0 12 0 C12 1.32 12 2.64 12 4 C8.04 4 4.08 4 0 4 C0 2.68 0 1.36 0 0 Z " fill="#101010" transform="translate(16,12)"/>
<path d="M0 0 C2.64 0 5.28 0 8 0 C8 1.32 8 2.64 8 4 C5.36 4 2.72 4 0 4 C0 2.68 0 1.36 0 0 Z " fill="#101010" transform="translate(124,208)"/>
<path d="M0 0 C1.32 0 2.64 0 4 0 C4 2.64 4 5.28 4 8 C2.68 8 1.36 8 0 8 C0 5.36 0 2.72 0 0 Z " fill="#101010" transform="translate(132,200)"/>
<path d="M0 0 C1.32 0 2.64 0 4 0 C4 2.64 4 5.28 4 8 C2.68 8 1.36 8 0 8 C0 5.36 0 2.72 0 0 Z " fill="#101010" transform="translate(116,196)"/>
<path d="M0 0 C1.32 0 2.64 0 4 0 C4 2.64 4 5.28 4 8 C2.68 8 1.36 8 0 8 C0 5.36 0 2.72 0 0 Z " fill="#493149" transform="translate(56,188)"/>
<path d="M0 0 C2.64 0 5.28 0 8 0 C8 1.32 8 2.64 8 4 C5.36 4 2.72 4 0 4 C0 2.68 0 1.36 0 0 Z " fill="#A477A0" transform="translate(48,192)"/>
<path d="M0 0 C1.32 0 2.64 0 4 0 C4 2.64 4 5.28 4 8 C2.68 8 1.36 8 0 8 C0 5.36 0 2.72 0 0 Z " fill="#101010" transform="translate(72,184)"/>
<path d="M0 0 C1.32 0 2.64 0 4 0 C4 2.64 4 5.28 4 8 C2.68 8 1.36 8 0 8 C0 5.36 0 2.72 0 0 Z " fill="#101010" transform="translate(160,180)"/>
<path d="M0 0 C1.32 0 2.64 0 4 0 C4 2.64 4 5.28 4 8 C2.68 8 1.36 8 0 8 C0 5.36 0 2.72 0 0 Z " fill="#835283" transform="translate(172,176)"/>
<path d="M0 0 C1.32 0 2.64 0 4 0 C4 2.64 4 5.28 4 8 C2.68 8 1.36 8 0 8 C0 5.36 0 2.72 0 0 Z " fill="#101010" transform="translate(108,176)"/>
<path d="M0 0 C2.64 0 5.28 0 8 0 C8 1.32 8 2.64 8 4 C5.36 4 2.72 4 0 4 C0 2.68 0 1.36 0 0 Z " fill="#493149" transform="translate(148,172)"/>
<path d="M0 0 C1.32 0 2.64 0 4 0 C4 2.64 4 5.28 4 8 C2.68 8 1.36 8 0 8 C0 5.36 0 2.72 0 0 Z " fill="#835283" transform="translate(168,168)"/>
<path d="M0 0 C2.64 0 5.28 0 8 0 C8 1.32 8 2.64 8 4 C5.36 4 2.72 4 0 4 C0 2.68 0 1.36 0 0 Z " fill="#493149" transform="translate(140,168)"/>
<path d="M0 0 C2.64 0 5.28 0 8 0 C8 1.32 8 2.64 8 4 C5.36 4 2.72 4 0 4 C0 2.68 0 1.36 0 0 Z " fill="#101010" transform="translate(132,164)"/>
<path d="M0 0 C2.64 0 5.28 0 8 0 C8 1.32 8 2.64 8 4 C5.36 4 2.72 4 0 4 C0 2.68 0 1.36 0 0 Z " fill="#493149" transform="translate(156,160)"/>
<path d="M0 0 C2.64 0 5.28 0 8 0 C8 1.32 8 2.64 8 4 C5.36 4 2.72 4 0 4 C0 2.68 0 1.36 0 0 Z " fill="#101010" transform="translate(76,156)"/>
<path d="M0 0 C1.32 0 2.64 0 4 0 C4 2.64 4 5.28 4 8 C2.68 8 1.36 8 0 8 C0 5.36 0 2.72 0 0 Z " fill="#835283" transform="translate(40,156)"/>
<path d="M0 0 C2.64 0 5.28 0 8 0 C8 1.32 8 2.64 8 4 C5.36 4 2.72 4 0 4 C0 2.68 0 1.36 0 0 Z " fill="#101010" transform="translate(180,140)"/>
<path d="M0 0 C2.64 0 5.28 0 8 0 C8 1.32 8 2.64 8 4 C5.36 4 2.72 4 0 4 C0 2.68 0 1.36 0 0 Z " fill="#101010" transform="translate(172,136)"/>
<path d="M0 0 C2.64 0 5.28 0 8 0 C8 1.32 8 2.64 8 4 C5.36 4 2.72 4 0 4 C0 2.68 0 1.36 0 0 Z " fill="#101010" transform="translate(108,132)"/>
<path d="M0 0 C1.32 0 2.64 0 4 0 C4 2.64 4 5.28 4 8 C2.68 8 1.36 8 0 8 C0 5.36 0 2.72 0 0 Z " fill="#E6BDE6" transform="translate(160,128)"/>
<path d="M0 0 C2.64 0 5.28 0 8 0 C8 1.32 8 2.64 8 4 C5.36 4 2.72 4 0 4 C0 2.68 0 1.36 0 0 Z " fill="#101010" transform="translate(116,128)"/>
<path d="M0 0 C2.64 0 5.28 0 8 0 C8 1.32 8 2.64 8 4 C5.36 4 2.72 4 0 4 C0 2.68 0 1.36 0 0 Z " fill="#101010" transform="translate(100,128)"/>
<path d="M0 0 C1.32 0 2.64 0 4 0 C4 2.64 4 5.28 4 8 C2.68 8 1.36 8 0 8 C0 5.36 0 2.72 0 0 Z " fill="#835283" transform="translate(184,124)"/>
<path d="M0 0 C1.32 0 2.64 0 4 0 C4 2.64 4 5.28 4 8 C2.68 8 1.36 8 0 8 C0 5.36 0 2.72 0 0 Z " fill="#101010" transform="translate(152,124)"/>
<path d="M0 0 C2.64 0 5.28 0 8 0 C8 1.32 8 2.64 8 4 C5.36 4 2.72 4 0 4 C0 2.68 0 1.36 0 0 Z " fill="#835283" transform="translate(84,120)"/>
<path d="M0 0 C2.64 0 5.28 0 8 0 C8 1.32 8 2.64 8 4 C5.36 4 2.72 4 0 4 C0 2.68 0 1.36 0 0 Z " fill="#835283" transform="translate(56,120)"/>
<path d="M0 0 C2.64 0 5.28 0 8 0 C8 1.32 8 2.64 8 4 C5.36 4 2.72 4 0 4 C0 2.68 0 1.36 0 0 Z " fill="#6A5666" transform="translate(112,116)"/>
<path d="M0 0 C2.64 0 5.28 0 8 0 C8 1.32 8 2.64 8 4 C5.36 4 2.72 4 0 4 C0 2.68 0 1.36 0 0 Z " fill="#101010" transform="translate(64,116)"/>
<path d="M0 0 C1.32 0 2.64 0 4 0 C4 2.64 4 5.28 4 8 C2.68 8 1.36 8 0 8 C0 5.36 0 2.72 0 0 Z " fill="#101010" transform="translate(48,116)"/>
<path d="M0 0 C1.32 0 2.64 0 4 0 C4 2.64 4 5.28 4 8 C2.68 8 1.36 8 0 8 C0 5.36 0 2.72 0 0 Z " fill="#E2E2E2" transform="translate(136,108)"/>
<path d="M0 0 C2.64 0 5.28 0 8 0 C8 1.32 8 2.64 8 4 C5.36 4 2.72 4 0 4 C0 2.68 0 1.36 0 0 Z " fill="#101010" transform="translate(160,108)"/>
<path d="M0 0 C2.64 0 5.28 0 8 0 C8 1.32 8 2.64 8 4 C5.36 4 2.72 4 0 4 C0 2.68 0 1.36 0 0 Z " fill="#101010" transform="translate(180,104)"/>
<path d="M0 0 C1.32 0 2.64 0 4 0 C4 2.64 4 5.28 4 8 C2.68 8 1.36 8 0 8 C0 5.36 0 2.72 0 0 Z " fill="#101010" transform="translate(40,104)"/>
<path d="M0 0 C2.64 0 5.28 0 8 0 C8 1.32 8 2.64 8 4 C5.36 4 2.72 4 0 4 C0 2.68 0 1.36 0 0 Z " fill="#835283" transform="translate(92,100)"/>
<path d="M0 0 C1.32 0 2.64 0 4 0 C4 2.64 4 5.28 4 8 C2.68 8 1.36 8 0 8 C0 5.36 0 2.72 0 0 Z " fill="#101010" transform="translate(52,100)"/>
<path d="M0 0 C2.64 0 5.28 0 8 0 C8 1.32 8 2.64 8 4 C5.36 4 2.72 4 0 4 C0 2.68 0 1.36 0 0 Z " fill="#101010" transform="translate(148,84)"/>
<path d="M0 0 C1.32 0 2.64 0 4 0 C4 2.64 4 5.28 4 8 C2.68 8 1.36 8 0 8 C0 5.36 0 2.72 0 0 Z " fill="#101010" transform="translate(204,80)"/>
<path d="M0 0 C2.64 0 5.28 0 8 0 C8 1.32 8 2.64 8 4 C5.36 4 2.72 4 0 4 C0 2.68 0 1.36 0 0 Z " fill="#101010" transform="translate(156,80)"/>
<path d="M0 0 C2.64 0 5.28 0 8 0 C8 1.32 8 2.64 8 4 C5.36 4 2.72 4 0 4 C0 2.68 0 1.36 0 0 Z " fill="#835283" transform="translate(148,80)"/>
<path d="M0 0 C2.64 0 5.28 0 8 0 C8 1.32 8 2.64 8 4 C5.36 4 2.72 4 0 4 C0 2.68 0 1.36 0 0 Z " fill="#101010" transform="translate(116,80)"/>
<path d="M0 0 C1.32 0 2.64 0 4 0 C4 2.64 4 5.28 4 8 C2.68 8 1.36 8 0 8 C0 5.36 0 2.72 0 0 Z " fill="#394A83" transform="translate(104,80)"/>
<path d="M0 0 C1.32 0 2.64 0 4 0 C4 2.64 4 5.28 4 8 C2.68 8 1.36 8 0 8 C0 5.36 0 2.72 0 0 Z " fill="#101010" transform="translate(52,72)"/>
<path d="M0 0 C1.32 0 2.64 0 4 0 C4 2.64 4 5.28 4 8 C2.68 8 1.36 8 0 8 C0 5.36 0 2.72 0 0 Z " fill="#101010" transform="translate(40,72)"/>
<path d="M0 0 C2.64 0 5.28 0 8 0 C8 1.32 8 2.64 8 4 C5.36 4 2.72 4 0 4 C0 2.68 0 1.36 0 0 Z " fill="#835283" transform="translate(120,64)"/>
<path d="M0 0 C1.32 0 2.64 0 4 0 C4 2.64 4 5.28 4 8 C2.68 8 1.36 8 0 8 C0 5.36 0 2.72 0 0 Z " fill="#101010" transform="translate(56,64)"/>
<path d="M0 0 C1.32 0 2.64 0 4 0 C4 2.64 4 5.28 4 8 C2.68 8 1.36 8 0 8 C0 5.36 0 2.72 0 0 Z " fill="#101010" transform="translate(44,64)"/>
<path d="M0 0 C2.64 0 5.28 0 8 0 C8 1.32 8 2.64 8 4 C5.36 4 2.72 4 0 4 C0 2.68 0 1.36 0 0 Z " fill="#101010" transform="translate(4,52)"/>
<path d="M0 0 C1.32 0 2.64 0 4 0 C4 2.64 4 5.28 4 8 C2.68 8 1.36 8 0 8 C0 5.36 0 2.72 0 0 Z " fill="#835283" transform="translate(104,48)"/>
<path d="M0 0 C2.64 0 5.28 0 8 0 C8 1.32 8 2.64 8 4 C5.36 4 2.72 4 0 4 C0 2.68 0 1.36 0 0 Z " fill="#101010" transform="translate(16,44)"/>
<path d="M0 0 C1.32 0 2.64 0 4 0 C4 2.64 4 5.28 4 8 C2.68 8 1.36 8 0 8 C0 5.36 0 2.72 0 0 Z " fill="#101010" transform="translate(0,44)"/>
<path d="M0 0 C2.64 0 5.28 0 8 0 C8 1.32 8 2.64 8 4 C5.36 4 2.72 4 0 4 C0 2.68 0 1.36 0 0 Z " fill="#835283" transform="translate(12,32)"/>
<path d="M0 0 C1.32 0 2.64 0 4 0 C4 2.64 4 5.28 4 8 C2.68 8 1.36 8 0 8 C0 5.36 0 2.72 0 0 Z " fill="#835283" transform="translate(52,20)"/>
<path d="M0 0 C1.32 0 2.64 0 4 0 C4 2.64 4 5.28 4 8 C2.68 8 1.36 8 0 8 C0 5.36 0 2.72 0 0 Z " fill="#A477A0" transform="translate(48,16)"/>
<path d="M0 0 C2.64 0 5.28 0 8 0 C8 1.32 8 2.64 8 4 C5.36 4 2.72 4 0 4 C0 2.68 0 1.36 0 0 Z " fill="#101010" transform="translate(28,16)"/>
<path d="M0 0 C2.64 0 5.28 0 8 0 C8 1.32 8 2.64 8 4 C5.36 4 2.72 4 0 4 C0 2.68 0 1.36 0 0 Z " fill="#835283" transform="translate(32,4)"/>
<path d="M0 0 C1.32 0 2.64 0 4 0 C4 2.64 4 5.28 4 8 C2.68 8 1.36 8 0 8 C0 5.36 0 2.72 0 0 Z " fill="#101010" transform="translate(12,4)"/>
</svg>
